<svg width="17" height="16" viewBox="0 0 17 16" fill="none" xmlns="http://www.w3.org/2000/svg">
<path d="M2.29883 15.0957C2.13216 15.1582 1.97591 15.1895 1.83008 15.1895C1.58008 15.1895 1.34049 15.1061 1.11133 14.9395C0.757161 14.6895 0.580078 14.3457 0.580078 13.9082V13.6895C0.580078 13.1478 0.736328 12.6582 1.04883 12.2207C1.38216 11.7624 1.80924 11.4395 2.33008 11.252L7.33008 9.5332L12.1426 7.8457C12.2051 7.82487 12.2363 7.79362 12.2363 7.75195C12.2363 7.68945 12.2051 7.64779 12.1426 7.62695L7.33008 5.93945L2.33008 4.2207C1.80924 4.0332 1.38216 3.7207 1.04883 3.2832C0.736328 2.82487 0.580078 2.32487 0.580078 1.7832V1.5957C0.580078 1.1582 0.757161 0.814453 1.11133 0.564453C1.34049 0.397786 1.58008 0.314453 1.83008 0.314453C1.97591 0.314453 2.13216 0.345703 2.29883 0.408203L15.4551 5.50195C15.9134 5.66862 16.278 5.96029 16.5488 6.37695C16.8405 6.79362 16.9863 7.25195 16.9863 7.75195C16.9863 8.25195 16.8405 8.71029 16.5488 9.12695C16.278 9.54362 15.9134 9.83529 15.4551 10.002L2.29883 15.0957Z" fill="#FFB800"/>
</svg>
