<svg width="18" height="16" viewBox="0 0 18 16" fill="none" xmlns="http://www.w3.org/2000/svg">
<mask id="path-1-outside-1_388_1397" maskUnits="userSpaceOnUse" x="-1" y="-1" width="20" height="18" fill="black">
<rect fill="white" x="-1" y="-1" width="20" height="18"/>
<path d="M2.51562 15.3125C2.34896 15.375 2.19271 15.4062 2.04688 15.4062C1.79688 15.4062 1.55729 15.3229 1.32812 15.1562C0.973958 14.9062 0.796875 14.5625 0.796875 14.125V13.9062C0.796875 13.3646 0.953125 12.875 1.26562 12.4375C1.59896 11.9792 2.02604 11.6562 2.54688 11.4688L7.54688 9.75L12.3594 8.0625C12.4219 8.04167 12.4531 8.01042 12.4531 7.96875C12.4531 7.90625 12.4219 7.86458 12.3594 7.84375L7.54688 6.15625L2.54688 4.4375C2.02604 4.25 1.59896 3.9375 1.26562 3.5C0.953125 3.04167 0.796875 2.54167 0.796875 2V1.8125C0.796875 1.375 0.973958 1.03125 1.32812 0.78125C1.55729 0.614583 1.79688 0.53125 2.04688 0.53125C2.19271 0.53125 2.34896 0.5625 2.51562 0.625L15.6719 5.71875C16.1302 5.88542 16.4948 6.17708 16.7656 6.59375C17.0573 7.01042 17.2031 7.46875 17.2031 7.96875C17.2031 8.46875 17.0573 8.92708 16.7656 9.34375C16.4948 9.76042 16.1302 10.0521 15.6719 10.2188L2.51562 15.3125Z"/>
</mask>
<path d="M2.51562 15.3125C2.34896 15.375 2.19271 15.4062 2.04688 15.4062C1.79688 15.4062 1.55729 15.3229 1.32812 15.1562C0.973958 14.9062 0.796875 14.5625 0.796875 14.125V13.9062C0.796875 13.3646 0.953125 12.875 1.26562 12.4375C1.59896 11.9792 2.02604 11.6562 2.54688 11.4688L7.54688 9.75L12.3594 8.0625C12.4219 8.04167 12.4531 8.01042 12.4531 7.96875C12.4531 7.90625 12.4219 7.86458 12.3594 7.84375L7.54688 6.15625L2.54688 4.4375C2.02604 4.25 1.59896 3.9375 1.26562 3.5C0.953125 3.04167 0.796875 2.54167 0.796875 2V1.8125C0.796875 1.375 0.973958 1.03125 1.32812 0.78125C1.55729 0.614583 1.79688 0.53125 2.04688 0.53125C2.19271 0.53125 2.34896 0.5625 2.51562 0.625L15.6719 5.71875C16.1302 5.88542 16.4948 6.17708 16.7656 6.59375C17.0573 7.01042 17.2031 7.46875 17.2031 7.96875C17.2031 8.46875 17.0573 8.92708 16.7656 9.34375C16.4948 9.76042 16.1302 10.0521 15.6719 10.2188L2.51562 15.3125Z" fill="white"/>
<path d="M2.51562 15.3125L2.86677 16.2489L2.87668 16.245L2.51562 15.3125ZM1.32812 15.1562L1.91636 14.3474L1.90481 14.3393L1.32812 15.1562ZM1.26562 12.4375L0.456859 11.8493L0.451891 11.8563L1.26562 12.4375ZM2.54688 11.4688L2.2218 10.5231L2.21496 10.5254L2.20816 10.5279L2.54688 11.4688ZM7.54688 9.75L7.87196 10.6957L7.87777 10.6937L7.54688 9.75ZM12.3594 8.0625L12.0431 7.11382L12.0358 7.11627L12.0285 7.11883L12.3594 8.0625ZM12.3594 7.84375L12.0285 8.78742L12.0358 8.78998L12.0431 8.79243L12.3594 7.84375ZM7.54688 6.15625L7.87778 5.21257L7.87195 5.21056L7.54688 6.15625ZM2.54688 4.4375L2.20816 5.37839L2.21496 5.38084L2.2218 5.38319L2.54688 4.4375ZM1.26562 3.5L0.439398 4.06334L0.454233 4.0851L0.470193 4.10604L1.26562 3.5ZM1.32812 0.78125L1.90487 1.5983L1.9163 1.58999L1.32812 0.78125ZM2.51562 0.625L2.8767 -0.307597L2.86675 -0.311329L2.51562 0.625ZM15.6719 5.71875L15.3108 6.65129L15.3204 6.65502L15.3301 6.65854L15.6719 5.71875ZM16.7656 6.59375L15.9272 7.13874L15.9365 7.15314L15.9464 7.16721L16.7656 6.59375ZM16.7656 9.34375L15.9464 8.77029L15.9365 8.78436L15.9272 8.79876L16.7656 9.34375ZM15.6719 10.2188L15.3301 9.27896L15.3204 9.28248L15.3108 9.28621L15.6719 10.2188ZM2.1645 14.3762C2.08613 14.4056 2.0496 14.4062 2.04688 14.4062V16.4062C2.33581 16.4062 2.61179 16.3444 2.86675 16.2488L2.1645 14.3762ZM2.04688 14.4062C2.03584 14.4062 1.99832 14.4072 1.9163 14.3475L0.739953 15.965C1.11626 16.2387 1.55791 16.4062 2.04688 16.4062V14.4062ZM1.90481 14.3393C1.84306 14.2957 1.82497 14.2652 1.81866 14.253C1.81218 14.2404 1.79688 14.2056 1.79688 14.125H-0.203125C-0.203125 14.8839 0.128921 15.5338 0.751442 15.9732L1.90481 14.3393ZM1.79688 14.125V13.9062H-0.203125V14.125H1.79688ZM1.79688 13.9062C1.79688 13.5713 1.88897 13.2853 2.07936 13.0187L0.451891 11.8563C0.0172782 12.4647 -0.203125 13.1578 -0.203125 13.9062H1.79688ZM2.07436 13.0257C2.29287 12.7252 2.55794 12.5276 2.88559 12.4096L2.20816 10.5279C1.49415 10.7849 0.905051 11.2331 0.456889 11.8493L2.07436 13.0257ZM2.87195 12.4144L7.87195 10.6957L7.2218 8.80431L2.2218 10.5231L2.87195 12.4144ZM7.87777 10.6937L12.6903 9.00617L12.0285 7.11883L7.21598 8.80633L7.87777 10.6937ZM12.6756 9.01118C12.8688 8.9468 13.4531 8.67467 13.4531 7.96875H11.4531C11.4531 7.70703 11.5633 7.47562 11.7226 7.31633C11.8573 7.18161 11.9934 7.13038 12.0431 7.11382L12.6756 9.01118ZM13.4531 7.96875C13.4531 7.76563 13.3995 7.51706 13.2297 7.29062C13.0632 7.06865 12.8486 6.95273 12.6756 6.89507L12.0431 8.79243C11.9326 8.7556 11.7649 8.67093 11.6297 8.49063C11.4911 8.30585 11.4531 8.10937 11.4531 7.96875H13.4531ZM12.6903 6.90008L7.87777 5.21258L7.21598 7.09992L12.0285 8.78742L12.6903 6.90008ZM7.87195 5.21056L2.87195 3.49181L2.2218 5.38319L7.2218 7.10194L7.87195 5.21056ZM2.88559 3.49661C2.54484 3.37394 2.2768 3.17712 2.06106 2.89396L0.470193 4.10604C0.921116 4.69788 1.50724 5.12606 2.20816 5.37839L2.88559 3.49661ZM2.09185 2.93666C1.88966 2.64012 1.79688 2.33559 1.79688 2H-0.203125C-0.203125 2.74774 0.0165875 3.44322 0.439398 4.06334L2.09185 2.93666ZM1.79688 2V1.8125H-0.203125V2H1.79688ZM1.79688 1.8125C1.79688 1.73193 1.81218 1.6971 1.81866 1.68452C1.82497 1.67228 1.84306 1.6418 1.90481 1.59822L0.751442 -0.035718C0.128921 0.403709 -0.203125 1.05365 -0.203125 1.8125H1.79688ZM1.9163 1.58999C1.99832 1.53033 2.03584 1.53125 2.04688 1.53125V-0.46875C1.55791 -0.46875 1.11626 -0.301163 0.739953 -0.0274861L1.9163 1.58999ZM2.04688 1.53125C2.0496 1.53125 2.08613 1.53194 2.1645 1.56133L2.86675 -0.311329C2.61179 -0.406939 2.33581 -0.46875 2.04688 -0.46875V1.53125ZM2.15457 1.55754L15.3108 6.65129L16.0329 4.78621L2.87668 -0.307544L2.15457 1.55754ZM15.3301 6.65854C15.5803 6.74951 15.7722 6.90038 15.9272 7.13874L17.6041 6.04876C17.2173 5.45379 16.6801 5.02132 16.0136 4.77896L15.3301 6.65854ZM15.9464 7.16721C16.1226 7.41889 16.2031 7.67767 16.2031 7.96875H18.2031C18.2031 7.25983 17.992 6.60194 17.5849 6.02029L15.9464 7.16721ZM16.2031 7.96875C16.2031 8.25983 16.1226 8.51861 15.9464 8.77029L17.5849 9.91721C17.992 9.33556 18.2031 8.67767 18.2031 7.96875H16.2031ZM15.9272 8.79876C15.7722 9.03712 15.5803 9.18799 15.3301 9.27896L16.0136 11.1585C16.6801 10.9162 17.2173 10.4837 17.6041 9.88874L15.9272 8.79876ZM15.3108 9.28621L2.15457 14.38L2.87668 16.245L16.0329 11.1513L15.3108 9.28621Z" fill="#FFB800" mask="url(#path-1-outside-1_388_1397)"/>
</svg>
