<svg width="30" height="30" viewBox="0 0 50 46" fill="none" xmlns="http://www.w3.org/2000/svg">
<mask id="path-1-outside-1_406_34" maskUnits="userSpaceOnUse" x="-1" y="-1" width="52" height="48" fill="black">
<rect fill="white" x="-1" y="-1" width="52" height="48"/>
<path d="M5.54688 44.9375C5.04688 45.125 4.57812 45.2188 4.14062 45.2188C3.39062 45.2188 2.67188 44.9688 1.98438 44.4688C0.921875 43.7188 0.390625 42.6875 0.390625 41.375V40.7188C0.390625 39.0938 0.859375 37.625 1.79688 36.3125C2.79688 34.9375 4.07812 33.9688 5.64062 33.4062L20.6406 28.25L35.0781 23.1875C35.2656 23.125 35.3594 23.0312 35.3594 22.9062C35.3594 22.7188 35.2656 22.5938 35.0781 22.5312L20.6406 17.4688L5.64062 12.3125C4.07812 11.75 2.79688 10.8125 1.79688 9.5C0.859375 8.125 0.390625 6.625 0.390625 5V4.4375C0.390625 3.125 0.921875 2.09375 1.98438 1.34375C2.67188 0.84375 3.39062 0.59375 4.14062 0.59375C4.57812 0.59375 5.04688 0.6875 5.54688 0.875L45.0156 16.1562C46.3906 16.6562 47.4844 17.5312 48.2969 18.7812C49.1719 20.0312 49.6094 21.4062 49.6094 22.9062C49.6094 24.4062 49.1719 25.7812 48.2969 27.0312C47.4844 28.2812 46.3906 29.1562 45.0156 29.6562L5.54688 44.9375Z"/>
</mask>
<path d="M5.54688 44.9375C5.04688 45.125 4.57812 45.2188 4.14062 45.2188C3.39062 45.2188 2.67188 44.9688 1.98438 44.4688C0.921875 43.7188 0.390625 42.6875 0.390625 41.375V40.7188C0.390625 39.0938 0.859375 37.625 1.79688 36.3125C2.79688 34.9375 4.07812 33.9688 5.64062 33.4062L20.6406 28.25L35.0781 23.1875C35.2656 23.125 35.3594 23.0312 35.3594 22.9062C35.3594 22.7188 35.2656 22.5938 35.0781 22.5312L20.6406 17.4688L5.64062 12.3125C4.07812 11.75 2.79688 10.8125 1.79688 9.5C0.859375 8.125 0.390625 6.625 0.390625 5V4.4375C0.390625 3.125 0.921875 2.09375 1.98438 1.34375C2.67188 0.84375 3.39062 0.59375 4.14062 0.59375C4.57812 0.59375 5.04688 0.6875 5.54688 0.875L45.0156 16.1562C46.3906 16.6562 47.4844 17.5312 48.2969 18.7812C49.1719 20.0312 49.6094 21.4062 49.6094 22.9062C49.6094 24.4062 49.1719 25.7812 48.2969 27.0312C47.4844 28.2812 46.3906 29.1562 45.0156 29.6562L5.54688 44.9375Z" fill="white"/>
<path d="M5.54688 44.9375L5.89802 45.8739L5.90793 45.87L5.54688 44.9375ZM1.98438 44.4688L2.57261 43.6599L2.56106 43.6518L1.98438 44.4688ZM1.79688 36.3125L0.98811 35.7243L0.983143 35.7313L1.79688 36.3125ZM5.64062 33.4062L5.31554 32.4606L5.30871 32.4629L5.30191 32.4654L5.64062 33.4062ZM20.6406 28.25L20.9657 29.1957L20.9715 29.1937L20.6406 28.25ZM35.0781 23.1875L34.7619 22.2388L34.7545 22.2413L34.7472 22.2438L35.0781 23.1875ZM35.0781 22.5312L34.7472 23.4749L34.7545 23.4775L34.7619 23.4799L35.0781 22.5312ZM20.6406 17.4688L20.9715 16.5251L20.9657 16.5231L20.6406 17.4688ZM5.64062 12.3125L5.30191 13.2534L5.30871 13.2558L5.31554 13.2582L5.64062 12.3125ZM1.79688 9.5L0.970646 10.0633L0.985481 10.0851L1.00144 10.106L1.79688 9.5ZM1.98438 1.34375L2.56112 2.1608L2.57255 2.15248L1.98438 1.34375ZM5.54688 0.875L5.90795 -0.0575981L5.898 -0.0613289L5.54688 0.875ZM45.0156 16.1562L44.6546 17.0888L44.6642 17.0925L44.6739 17.096L45.0156 16.1562ZM48.2969 18.7812L47.4584 19.3262L47.4678 19.3406L47.4776 19.3547L48.2969 18.7812ZM48.2969 27.0312L47.4776 26.4578L47.4678 26.4719L47.4584 26.4863L48.2969 27.0312ZM45.0156 29.6562L44.6739 28.7165L44.6642 28.72L44.6546 28.7237L45.0156 29.6562ZM5.19575 44.0012C4.78404 44.1556 4.43502 44.2188 4.14062 44.2188V46.2188C4.72123 46.2188 5.30971 46.0944 5.898 45.8738L5.19575 44.0012ZM4.14062 44.2188C3.62959 44.2188 3.11291 44.053 2.57255 43.66L1.3962 45.2775C2.23084 45.8845 3.15166 46.2188 4.14062 46.2188V44.2188ZM2.56106 43.6518C1.76691 43.0912 1.39062 42.3661 1.39062 41.375H-0.609375C-0.609375 43.0089 0.0768356 44.3463 1.40769 45.2857L2.56106 43.6518ZM1.39062 41.375V40.7188H-0.609375V41.375H1.39062ZM1.39062 40.7188C1.39062 39.3005 1.79522 38.0353 2.61061 36.8937L0.983143 35.7313C-0.0764732 37.2147 -0.609375 38.887 -0.609375 40.7188H1.39062ZM2.60561 36.9007C3.49078 35.6836 4.61002 34.8401 5.97934 34.3471L5.30191 32.4654C3.54623 33.0974 2.10297 34.1914 0.98814 35.7243L2.60561 36.9007ZM5.96571 34.3519L20.9657 29.1957L20.3155 27.3043L5.31554 32.4606L5.96571 34.3519ZM20.9715 29.1937L35.409 24.1312L34.7472 22.2438L20.3097 27.3063L20.9715 29.1937ZM35.3944 24.1362C35.7125 24.0301 36.3594 23.6955 36.3594 22.9062H34.3594C34.3594 22.6862 34.4539 22.4912 34.582 22.3632C34.6365 22.3087 34.6861 22.2769 34.7155 22.2606C34.7308 22.2521 34.7427 22.2467 34.7501 22.2435C34.7576 22.2402 34.7618 22.2389 34.7619 22.2388L35.3944 24.1362ZM36.3594 22.9062C36.3594 22.6406 36.2901 22.34 36.0891 22.0719C35.8913 21.8082 35.6299 21.6611 35.3944 21.5826L34.7619 23.4799C34.7139 23.4639 34.593 23.4105 34.4891 23.2719C34.3817 23.1288 34.3594 22.9844 34.3594 22.9062H36.3594ZM35.409 21.5876L20.9715 16.5251L20.3097 18.4124L34.7472 23.4749L35.409 21.5876ZM20.9657 16.5231L5.96571 11.3668L5.31554 13.2582L20.3155 18.4144L20.9657 16.5231ZM5.97934 11.3716C4.59692 10.8739 3.47472 10.0521 2.59231 8.89396L1.00144 10.106C2.11903 11.5729 3.55933 12.6261 5.30191 13.2534L5.97934 11.3716ZM2.6231 8.93666C1.79591 7.72345 1.39062 6.41893 1.39062 5H-0.609375C-0.609375 6.83107 -0.0771637 8.52655 0.970646 10.0633L2.6231 8.93666ZM1.39062 5V4.4375H-0.609375V5H1.39062ZM1.39062 4.4375C1.39062 3.44635 1.76691 2.72129 2.56106 2.16072L1.40769 0.526783C0.0768356 1.46621 -0.609375 2.80365 -0.609375 4.4375H1.39062ZM2.57255 2.15248C3.11291 1.75949 3.62959 1.59375 4.14062 1.59375V-0.40625C3.15166 -0.40625 2.23084 -0.0719948 1.3962 0.535015L2.57255 2.15248ZM4.14062 1.59375C4.43502 1.59375 4.78404 1.65694 5.19575 1.81133L5.898 -0.0613289C5.30971 -0.28194 4.72123 -0.40625 4.14062 -0.40625V1.59375ZM5.18582 1.80754L44.6546 17.0888L45.3767 15.2237L5.90793 -0.0575447L5.18582 1.80754ZM44.6739 17.096C45.8407 17.5203 46.7618 18.2545 47.4584 19.3262L49.1353 18.2363C48.2069 16.808 46.9405 15.7922 45.3574 15.2165L44.6739 17.096ZM47.4776 19.3547C48.2372 20.4397 48.6094 21.6152 48.6094 22.9062H50.6094C50.6094 21.1973 50.1066 19.6228 49.1161 18.2078L47.4776 19.3547ZM48.6094 22.9062C48.6094 24.1973 48.2372 25.3728 47.4776 26.4578L49.1161 27.6047C50.1066 26.1897 50.6094 24.6152 50.6094 22.9062H48.6094ZM47.4584 26.4863C46.7618 27.558 45.8407 28.2922 44.6739 28.7165L45.3574 30.596C46.9405 30.0203 48.2069 29.0045 49.1353 27.5762L47.4584 26.4863ZM44.6546 28.7237L5.18582 44.005L5.90793 45.87L45.3767 30.5888L44.6546 28.7237Z" fill="#FFB800" mask="url(#path-1-outside-1_406_34)"/>
</svg>
