<svg width="30" height="30" viewBox="0 0 50 46" fill="none" xmlns="http://www.w3.org/2000/svg">
<path d="M5.54688 44.9375C5.04688 45.125 4.57812 45.2188 4.14062 45.2188C3.39062 45.2188 2.67188 44.9688 1.98438 44.4688C0.921875 43.7188 0.390625 42.6875 0.390625 41.375V40.7188C0.390625 39.0938 0.859375 37.625 1.79688 36.3125C2.79688 34.9375 4.07812 33.9688 5.64062 33.4062L20.6406 28.25L35.0781 23.1875C35.2656 23.125 35.3594 23.0312 35.3594 22.9062C35.3594 22.7188 35.2656 22.5938 35.0781 22.5312L20.6406 17.4688L5.64062 12.3125C4.07812 11.75 2.79688 10.8125 1.79688 9.5C0.859375 8.125 0.390625 6.625 0.390625 5V4.4375C0.390625 3.125 0.921875 2.09375 1.98438 1.34375C2.67188 0.84375 3.39062 0.59375 4.14062 0.59375C4.57812 0.59375 5.04688 0.6875 5.54688 0.875L45.0156 16.1562C46.3906 16.6562 47.4844 17.5312 48.2969 18.7812C49.1719 20.0312 49.6094 21.4062 49.6094 22.9062C49.6094 24.4062 49.1719 25.7812 48.2969 27.0312C47.4844 28.2812 46.3906 29.1562 45.0156 29.6562L5.54688 44.9375Z" fill="#FCD36B"/>
</svg>
