<svg width="17" height="16" viewBox="0 0 17 16" fill="none" xmlns="http://www.w3.org/2000/svg">
<mask id="path-1-outside-1_1166_486" maskUnits="userSpaceOnUse" x="-1" y="-0.835449" width="19" height="18" fill="black">
<rect fill="white" x="-1" y="-0.835449" width="19" height="18"/>
<path d="M16.7249 14.2896C16.7249 14.7271 16.5478 15.0708 16.1936 15.3208C15.9644 15.4875 15.7249 15.5708 15.4749 15.5708C15.329 15.5708 15.1728 15.5396 15.0061 15.4771L1.88111 10.3833C1.40195 10.2166 1.01653 9.92497 0.724864 9.5083C0.454031 9.09163 0.318614 8.6333 0.318614 8.1333C0.318614 7.6333 0.454031 7.17497 0.724864 6.7583C1.01653 6.34163 1.40195 6.04997 1.88111 5.8833L15.0061 0.789551C15.1728 0.727051 15.329 0.695801 15.4749 0.695801C15.7249 0.695801 15.9644 0.779134 16.1936 0.945801C16.5478 1.1958 16.7249 1.53955 16.7249 1.97705V2.16455C16.7249 2.70622 16.5582 3.20622 16.2249 3.66455C15.9124 4.10205 15.4957 4.41455 14.9749 4.60205L10.0061 6.3208L5.19361 8.0083C5.15195 8.02913 5.13111 8.0708 5.13111 8.1333C5.13111 8.17497 5.15195 8.20622 5.19361 8.22705L10.0061 9.91455L14.9749 11.6333C15.4957 11.8 15.9124 12.1125 16.2249 12.5708C16.5582 13.0291 16.7249 13.5291 16.7249 14.0708V14.2896Z"/>
</mask>
<path d="M16.7249 14.2896C16.7249 14.7271 16.5478 15.0708 16.1936 15.3208C15.9644 15.4875 15.7249 15.5708 15.4749 15.5708C15.329 15.5708 15.1728 15.5396 15.0061 15.4771L1.88111 10.3833C1.40195 10.2166 1.01653 9.92497 0.724864 9.5083C0.454031 9.09163 0.318614 8.6333 0.318614 8.1333C0.318614 7.6333 0.454031 7.17497 0.724864 6.7583C1.01653 6.34163 1.40195 6.04997 1.88111 5.8833L15.0061 0.789551C15.1728 0.727051 15.329 0.695801 15.4749 0.695801C15.7249 0.695801 15.9644 0.779134 16.1936 0.945801C16.5478 1.1958 16.7249 1.53955 16.7249 1.97705V2.16455C16.7249 2.70622 16.5582 3.20622 16.2249 3.66455C15.9124 4.10205 15.4957 4.41455 14.9749 4.60205L10.0061 6.3208L5.19361 8.0083C5.15195 8.02913 5.13111 8.0708 5.13111 8.1333C5.13111 8.17497 5.15195 8.20622 5.19361 8.22705L10.0061 9.91455L14.9749 11.6333C15.4957 11.8 15.9124 12.1125 16.2249 12.5708C16.5582 13.0291 16.7249 13.5291 16.7249 14.0708V14.2896Z" fill="white"/>
<path d="M16.1936 15.3208L15.6169 14.5038L15.6054 14.5121L16.1936 15.3208ZM15.0061 15.4771L14.6443 16.4094L14.655 16.4134L15.0061 15.4771ZM1.88111 10.3833L2.24292 9.45105L2.22638 9.44463L2.20963 9.4388L1.88111 10.3833ZM0.724864 9.5083L-0.11358 10.0533L-0.104218 10.0677L-0.0943679 10.0818L0.724864 9.5083ZM0.724864 6.7583L-0.0943679 6.18484L-0.104218 6.19891L-0.11358 6.21331L0.724864 6.7583ZM1.88111 5.8833L2.20963 6.8278L2.22638 6.82197L2.24292 6.81556L1.88111 5.8833ZM15.0061 0.789551L14.655 -0.14684L14.6443 -0.142704L15.0061 0.789551ZM16.1936 0.945801L15.6054 1.75462L15.6169 1.76277L16.1936 0.945801ZM16.2249 3.66455L15.4161 3.07636L15.4111 3.08331L16.2249 3.66455ZM14.9749 4.60205L15.3018 5.54718L15.3136 5.54294L14.9749 4.60205ZM10.0061 6.3208L9.6792 5.37574L9.67522 5.37713L10.0061 6.3208ZM5.19361 8.0083L4.86272 7.06463L4.803 7.08557L4.7464 7.11387L5.19361 8.0083ZM5.19361 8.22705L4.7464 9.12148L4.803 9.14978L4.86272 9.17072L5.19361 8.22705ZM10.0061 9.91455L9.67521 10.8582L9.67921 10.8596L10.0061 9.91455ZM14.9749 11.6333L14.648 12.5784L14.659 12.5822L14.6701 12.5857L14.9749 11.6333ZM16.2249 12.5708L15.3986 13.1341L15.4072 13.1467L15.4161 13.159L16.2249 12.5708ZM15.7249 14.2896C15.7249 14.3701 15.7096 14.405 15.7031 14.4175C15.6968 14.4298 15.6787 14.4602 15.6169 14.5038L16.7703 16.1378C17.3928 15.6983 17.7249 15.0484 17.7249 14.2896H15.7249ZM15.6054 14.5121C15.5234 14.5717 15.4859 14.5708 15.4749 14.5708V16.5708C15.9638 16.5708 16.4055 16.4032 16.7818 16.1295L15.6054 14.5121ZM15.4749 14.5708C15.4721 14.5708 15.4356 14.5701 15.3572 14.5407L14.655 16.4134C14.91 16.509 15.1859 16.5708 15.4749 16.5708V14.5708ZM15.3679 14.5448L2.24292 9.45105L1.51931 11.3156L14.6443 16.4093L15.3679 14.5448ZM2.20963 9.4388C1.9295 9.34137 1.71557 9.1798 1.5441 8.93484L-0.0943679 10.0818C0.317489 10.6701 0.874393 11.0919 1.55259 11.3278L2.20963 9.4388ZM1.56331 8.96331C1.3986 8.70991 1.31861 8.4411 1.31861 8.1333H-0.681386C-0.681386 8.8255 -0.490535 9.47336 -0.11358 10.0533L1.56331 8.96331ZM1.31861 8.1333C1.31861 7.8255 1.3986 7.55669 1.56331 7.30329L-0.11358 6.21331C-0.490535 6.79324 -0.681386 7.4411 -0.681386 8.1333H1.31861ZM1.5441 7.33176C1.71557 7.0868 1.9295 6.92523 2.20963 6.8278L1.55259 4.9388C0.874393 5.1747 0.317489 5.59647 -0.0943679 6.18484L1.5441 7.33176ZM2.24292 6.81556L15.3679 1.72181L14.6443 -0.142704L1.51931 4.95105L2.24292 6.81556ZM15.3572 1.72588C15.4356 1.69649 15.4721 1.6958 15.4749 1.6958V-0.304199C15.1859 -0.304199 14.91 -0.242388 14.655 -0.146778L15.3572 1.72588ZM15.4749 1.6958C15.4859 1.6958 15.5234 1.69488 15.6054 1.75454L16.7818 0.137065C16.4055 -0.136612 15.9638 -0.304199 15.4749 -0.304199V1.6958ZM15.6169 1.76277C15.6787 1.80636 15.6968 1.83683 15.7031 1.84907C15.7096 1.86165 15.7249 1.89648 15.7249 1.97705H17.7249C17.7249 1.2182 17.3928 0.56826 16.7703 0.128833L15.6169 1.76277ZM15.7249 1.97705V2.16455H17.7249V1.97705H15.7249ZM15.7249 2.16455C15.7249 2.48468 15.6313 2.78054 15.4161 3.07638L17.0336 4.25272C17.4851 3.6319 17.7249 2.92775 17.7249 2.16455H15.7249ZM15.4111 3.08331C15.2204 3.35032 14.9718 3.54033 14.6361 3.66116L15.3136 5.54294C16.0196 5.28877 16.6043 4.85379 17.0386 4.24579L15.4111 3.08331ZM14.648 3.65699L9.67921 5.37574L10.333 7.26586L15.3018 5.54711L14.648 3.65699ZM9.67522 5.37713L4.86272 7.06463L5.52451 8.95197L10.337 7.26447L9.67522 5.37713ZM4.7464 7.11387C4.24921 7.36247 4.13111 7.84304 4.13111 8.1333H6.13111C6.13111 8.2067 6.11973 8.34527 6.04117 8.50239C5.95482 8.67508 5.81352 8.81638 5.64083 8.90273L4.7464 7.11387ZM4.13111 8.1333C4.13111 8.32912 4.18294 8.54507 4.31469 8.74269C4.44226 8.93405 4.60694 9.05175 4.7464 9.12148L5.64083 7.33262C5.73862 7.38152 5.87205 7.47318 5.97879 7.63329C6.0897 7.79966 6.13111 7.97915 6.13111 8.1333H4.13111ZM4.86272 9.17072L9.67522 10.8582L10.337 8.97088L5.52451 7.28338L4.86272 9.17072ZM9.67921 10.8596L14.648 12.5784L15.3018 10.6882L10.333 8.96949L9.67921 10.8596ZM14.6701 12.5857C14.9753 12.6834 15.2098 12.8571 15.3986 13.1341L17.0511 12.0075C16.615 11.3678 16.0161 10.9165 15.2796 10.6809L14.6701 12.5857ZM15.4161 13.159C15.6313 13.4548 15.7249 13.7507 15.7249 14.0708H17.7249C17.7249 13.3076 17.4851 12.6035 17.0336 11.9826L15.4161 13.159ZM15.7249 14.0708V14.2896H17.7249V14.0708H15.7249Z" fill="#FFB800" mask="url(#path-1-outside-1_1166_486)"/>
</svg>
