<svg width="17" height="16" viewBox="0 0 17 16" fill="none" xmlns="http://www.w3.org/2000/svg">
<path d="M16.7249 14.0728C16.7249 14.5103 16.5478 14.854 16.1936 15.104C15.9644 15.2707 15.7249 15.354 15.4749 15.354C15.329 15.354 15.1728 15.3228 15.0061 15.2603L1.88111 10.1665C1.40195 9.99984 1.01653 9.70817 0.724864 9.2915C0.454031 8.87484 0.318614 8.4165 0.318614 7.9165C0.318614 7.4165 0.454031 6.95817 0.724864 6.5415C1.01653 6.12484 1.40195 5.83317 1.88111 5.6665L15.0061 0.572754C15.1728 0.510254 15.329 0.479004 15.4749 0.479004C15.7249 0.479004 15.9644 0.562337 16.1936 0.729004C16.5478 0.979004 16.7249 1.32275 16.7249 1.76025V1.94775C16.7249 2.48942 16.5582 2.98942 16.2249 3.44775C15.9124 3.88525 15.4957 4.19775 14.9749 4.38525L10.0061 6.104L5.19361 7.7915C5.15195 7.81234 5.13111 7.854 5.13111 7.9165C5.13111 7.95817 5.15195 7.98942 5.19361 8.01025L10.0061 9.69775L14.9749 11.4165C15.4957 11.5832 15.9124 11.8957 16.2249 12.354C16.5582 12.8123 16.7249 13.3123 16.7249 13.854V14.0728Z" fill="#FFB800"/>
</svg>
