<svg width="30" height="30" viewBox="0 0 50 46" fill="none" xmlns="http://www.w3.org/2000/svg">
<mask id="path-1-outside-1_406_18" maskUnits="userSpaceOnUse" x="-1" y="-1" width="52" height="48" fill="black">
<rect fill="white" x="-1" y="-1" width="52" height="48"/>
<path d="M49.6094 41.375C49.6094 42.6875 49.0781 43.7188 48.0156 44.4688C47.3281 44.9688 46.6094 45.2188 45.8594 45.2188C45.4219 45.2188 44.9531 45.125 44.4531 44.9375L5.07812 29.6562C3.64062 29.1562 2.48438 28.2812 1.60938 27.0312C0.796875 25.7812 0.390625 24.4062 0.390625 22.9062C0.390625 21.4062 0.796875 20.0312 1.60938 18.7812C2.48438 17.5312 3.64062 16.6562 5.07812 16.1562L44.4531 0.875C44.9531 0.6875 45.4219 0.59375 45.8594 0.59375C46.6094 0.59375 47.3281 0.84375 48.0156 1.34375C49.0781 2.09375 49.6094 3.125 49.6094 4.4375V5C49.6094 6.625 49.1094 8.125 48.1094 9.5C47.1719 10.8125 45.9219 11.75 44.3594 12.3125L29.4531 17.4688L15.0156 22.5312C14.8906 22.5938 14.8281 22.7188 14.8281 22.9062C14.8281 23.0312 14.8906 23.125 15.0156 23.1875L29.4531 28.25L44.3594 33.4062C45.9219 33.9062 47.1719 34.8438 48.1094 36.2188C49.1094 37.5938 49.6094 39.0938 49.6094 40.7188V41.375Z"/>
</mask>
<path d="M49.6094 41.375C49.6094 42.6875 49.0781 43.7188 48.0156 44.4688C47.3281 44.9688 46.6094 45.2188 45.8594 45.2188C45.4219 45.2188 44.9531 45.125 44.4531 44.9375L5.07812 29.6562C3.64062 29.1562 2.48438 28.2812 1.60938 27.0312C0.796875 25.7812 0.390625 24.4062 0.390625 22.9062C0.390625 21.4062 0.796875 20.0312 1.60938 18.7812C2.48438 17.5312 3.64062 16.6562 5.07812 16.1562L44.4531 0.875C44.9531 0.6875 45.4219 0.59375 45.8594 0.59375C46.6094 0.59375 47.3281 0.84375 48.0156 1.34375C49.0781 2.09375 49.6094 3.125 49.6094 4.4375V5C49.6094 6.625 49.1094 8.125 48.1094 9.5C47.1719 10.8125 45.9219 11.75 44.3594 12.3125L29.4531 17.4688L15.0156 22.5312C14.8906 22.5938 14.8281 22.7188 14.8281 22.9062C14.8281 23.0312 14.8906 23.125 15.0156 23.1875L29.4531 28.25L44.3594 33.4062C45.9219 33.9062 47.1719 34.8438 48.1094 36.2188C49.1094 37.5938 49.6094 39.0938 49.6094 40.7188V41.375Z" fill="white"/>
<path d="M48.0156 44.4688L47.4389 43.6517L47.4275 43.66L48.0156 44.4688ZM44.4531 44.9375L44.0913 45.8698L44.102 45.8738L44.4531 44.9375ZM5.07812 29.6562L5.43993 28.724L5.4234 28.7176L5.40665 28.7118L5.07812 29.6562ZM1.60938 27.0312L0.770931 27.5762L0.780293 27.5906L0.790142 27.6047L1.60938 27.0312ZM1.60938 18.7812L0.790142 18.2078L0.780293 18.2219L0.770931 18.2363L1.60938 18.7812ZM5.07812 16.1562L5.40665 17.1007L5.4234 17.0949L5.43993 17.0885L5.07812 16.1562ZM44.4531 0.875L44.102 -0.0613899L44.0913 -0.0572548L44.4531 0.875ZM48.0156 1.34375L47.4274 2.15257L47.4389 2.16072L48.0156 1.34375ZM48.1094 9.5L47.3006 8.91181L47.2956 8.91876L48.1094 9.5ZM44.3594 12.3125L44.6863 13.2576L44.6981 13.2534L44.3594 12.3125ZM29.4531 17.4688L29.1262 16.5237L29.1222 16.5251L29.4531 17.4688ZM15.0156 22.5312L14.6847 21.5876L14.625 21.6085L14.5684 21.6368L15.0156 22.5312ZM15.0156 23.1875L14.5684 24.0819L14.625 24.1102L14.6847 24.1312L15.0156 23.1875ZM29.4531 28.25L29.1222 29.1937L29.1262 29.1951L29.4531 28.25ZM44.3594 33.4062L44.0325 34.3513L44.0435 34.3551L44.0546 34.3587L44.3594 33.4062ZM48.1094 36.2188L47.2831 36.7821L47.2917 36.7946L47.3006 36.8069L48.1094 36.2188ZM48.6094 41.375C48.6094 42.3661 48.2331 43.0912 47.4389 43.6518L48.5923 45.2857C49.9232 44.3463 50.6094 43.0089 50.6094 41.375H48.6094ZM47.4275 43.66C46.8871 44.053 46.3704 44.2188 45.8594 44.2188V46.2188C46.8483 46.2188 47.7692 45.8845 48.6038 45.2775L47.4275 43.66ZM45.8594 44.2188C45.565 44.2188 45.216 44.1556 44.8042 44.0012L44.102 45.8738C44.6903 46.0944 45.2788 46.2188 45.8594 46.2188V44.2188ZM44.8149 44.0052L5.43993 28.724L4.71632 30.5885L44.0913 45.8698L44.8149 44.0052ZM5.40665 28.7118C4.16818 28.281 3.18341 27.5361 2.42861 26.4578L0.790142 27.6047C1.78534 29.0264 3.11307 30.0315 4.7496 30.6007L5.40665 28.7118ZM2.44782 26.4863C1.74144 25.3995 1.39062 24.214 1.39062 22.9062H-0.609375C-0.609375 24.5985 -0.14769 26.163 0.770931 27.5762L2.44782 26.4863ZM1.39062 22.9062C1.39062 21.5985 1.74144 20.413 2.44782 19.3262L0.770931 18.2363C-0.14769 19.6495 -0.609375 21.214 -0.609375 22.9062H1.39062ZM2.42861 19.3547C3.18341 18.2764 4.16818 17.5315 5.40665 17.1007L4.7496 15.2118C3.11307 15.781 1.78534 16.7861 0.790142 18.2078L2.42861 19.3547ZM5.43993 17.0885L44.8149 1.80725L44.0913 -0.0572548L4.71632 15.224L5.43993 17.0885ZM44.8042 1.81133C45.216 1.65694 45.565 1.59375 45.8594 1.59375V-0.40625C45.2788 -0.40625 44.6903 -0.28194 44.102 -0.0613289L44.8042 1.81133ZM45.8594 1.59375C46.3704 1.59375 46.8871 1.75949 47.4275 2.15248L48.6038 0.535015C47.7692 -0.0719948 46.8483 -0.40625 45.8594 -0.40625V1.59375ZM47.4389 2.16072C48.2331 2.72129 48.6094 3.44635 48.6094 4.4375H50.6094C50.6094 2.80365 49.9232 1.46621 48.5923 0.526783L47.4389 2.16072ZM48.6094 4.4375V5H50.6094V4.4375H48.6094ZM48.6094 5C48.6094 6.40347 48.1825 7.69932 47.3006 8.91183L48.9181 10.0882C50.0363 8.55068 50.6094 6.84653 50.6094 5H48.6094ZM47.2956 8.91876C46.4799 10.0608 45.398 10.8758 44.0207 11.3716L44.6981 13.2534C46.4458 12.6242 47.8638 11.5642 48.9231 10.0812L47.2956 8.91876ZM44.0325 11.3674L29.1262 16.5237L29.78 18.4138L44.6863 13.2576L44.0325 11.3674ZM29.1222 16.5251L14.6847 21.5876L15.3465 23.4749L29.784 18.4124L29.1222 16.5251ZM14.5684 21.6368C13.9879 21.9271 13.8281 22.491 13.8281 22.9062H15.8281C15.8281 22.9172 15.8272 23.0036 15.7694 23.1191C15.7039 23.2501 15.5939 23.3602 15.4628 23.4257L14.5684 21.6368ZM13.8281 22.9062C13.8281 23.1437 13.8904 23.3961 14.0429 23.625C14.1914 23.8476 14.3873 23.9914 14.5684 24.0819L15.4628 22.2931C15.519 22.3211 15.6211 22.3867 15.7071 22.5156C15.7971 22.6507 15.8281 22.7938 15.8281 22.9062H13.8281ZM14.6847 24.1312L29.1222 29.1937L29.784 27.3063L15.3465 22.2438L14.6847 24.1312ZM29.1262 29.1951L44.0325 34.3513L44.6863 32.4612L29.78 27.3049L29.1262 29.1951ZM44.0546 34.3587C45.4015 34.7897 46.4693 35.5884 47.2831 36.7821L48.9356 35.6554C47.8745 34.0991 46.4423 33.0228 44.6642 32.4538L44.0546 34.3587ZM47.3006 36.8069C48.1825 38.0194 48.6094 39.3153 48.6094 40.7188H50.6094C50.6094 38.8722 50.0363 37.1681 48.9181 35.6306L47.3006 36.8069ZM48.6094 40.7188V41.375H50.6094V40.7188H48.6094Z" fill="#FFB800" mask="url(#path-1-outside-1_406_18)"/>
</svg>
