<svg width="30" height="30" viewBox="0 0 50 46" fill="none" xmlns="http://www.w3.org/2000/svg">
<path d="M49.6094 41.375C49.6094 42.6875 49.0781 43.7188 48.0156 44.4688C47.3281 44.9688 46.6094 45.2188 45.8594 45.2188C45.4219 45.2188 44.9531 45.125 44.4531 44.9375L5.07812 29.6562C3.64062 29.1562 2.48438 28.2812 1.60938 27.0312C0.796875 25.7812 0.390625 24.4062 0.390625 22.9062C0.390625 21.4062 0.796875 20.0312 1.60938 18.7812C2.48438 17.5312 3.64062 16.6562 5.07812 16.1562L44.4531 0.875C44.9531 0.6875 45.4219 0.59375 45.8594 0.59375C46.6094 0.59375 47.3281 0.84375 48.0156 1.34375C49.0781 2.09375 49.6094 3.125 49.6094 4.4375V5C49.6094 6.625 49.1094 8.125 48.1094 9.5C47.1719 10.8125 45.9219 11.75 44.3594 12.3125L29.4531 17.4688L15.0156 22.5312C14.8906 22.5938 14.8281 22.7188 14.8281 22.9062C14.8281 23.0312 14.8906 23.125 15.0156 23.1875L29.4531 28.25L44.3594 33.4062C45.9219 33.9062 47.1719 34.8438 48.1094 36.2188C49.1094 37.5938 49.6094 39.0938 49.6094 40.7188V41.375Z" fill="#FCD36B"/>
</svg>
